<svg
  data-v-6805eed4=""
  version="1.0"
  xmlns="http://www.w3.org/2000/svg"
  xmlns:xlink="http://www.w3.org/1999/xlink"
  width="100%"
  height="100%"
  viewBox="0 0 340.000000 250.000000"
  preserveAspectRatio="xMidYMid meet"
  color-interpolation-filters="sRGB"
  style="margin: auto"
>
  <rect
    data-v-6805eed4=""
    x="0"
    y="0"
    width="100%"
    height="100%"
    fill="#fff"
    fill-opacity="0"
    class="background"
  ></rect>
  <!---->
  <g
    data-v-6805eed4=""
    fill="#333"
    class="icon-text-wrapper icon-svg-group iconsvg"
    transform="translate(48.620002747956036,91.53989028930664)"
  >
    <g class="iconsvg-imagesvg" transform="matrix(1,0,0,1,0,0)" opacity="1">
      <g>
        <rect
          fill="#333"
          fill-opacity="0"
          stroke-width="2"
          x="0"
          y="0"
          width="60"
          height="66.92021994445622"
          class="image-rect"
        ></rect>
        <svg
          x="0"
          y="0"
          width="60"
          height="66.92021994445622"
          filtersec="colorsb6672904058"
          class="image-svg-svg primary"
          style="overflow: visible"
        >
          <svg
            xmlns="http://www.w3.org/2000/svg"
            viewBox="0.05000000447034836 0.04332852363586426 162.675537109375 181.43772888183594"
          >
            <defs>
              <linearGradient
                id="a978f8135-fb24-4319-9a34-621124e39b4a"
                y1="90.74"
                x2="162.68"
                y2="90.74"
                gradientUnits="userSpaceOnUse"
              >
                <stop offset="0" stop-color="#fdaf42"></stop>
                <stop offset=".47" stop-color="#fc51fa"></stop>
                <stop offset=".99" stop-color="#2cd4ff"></stop>
              </linearGradient>
            </defs>
            <path
              d="M48 95.84a15.27 15.27 0 0 0-16.75 9.74c-1.65 4.51-2.59 9.28-4 13.9-.75 2.48.5 3.27 2.57 3.79 4.19 1.06 8.32 2.41 12.54 3.32A15.63 15.63 0 1 0 48 95.84z"
              fill="none"
            ></path>
            <path
              d="M126.63 56c-14.1-5-27.07-4.07-39.29 4.82-1.6 1.17-3.48 2-5.14 3.07a8.46 8.46 0 0 1-8 1.19c-5.77-1.93-11.81-1.91-17.81-1.39-10 .87-22.29 6.88-26.48 12.85 17.68-2.28 33.33 1.39 43.29 17.24 10.6 16.88 6.35 33.1-4.47 48.66a46 46 0 0 0 27.64-22.86c6.14-11.52 6.08-23.53 1.9-35.8a34.58 34.58 0 0 1 5.51 16c.09 1.33-.12 4.29 2.56 2.86 10.29-5.49 21-10.65 24.68-23.22 1-3.52 2.06-7 3-10.58 2.98-11.67 3.61-8.99-7.39-12.84zM110.2 82.59c-4.59 0-8.71-4-8.76-8.41a9.08 9.08 0 0 1 9-8.82 8.7 8.7 0 0 1 8.33 8.8 8.29 8.29 0 0 1-8.57 8.43z"
              fill="none"
            ></path>
            <path
              d="M162.62 90.91c0-11.33-.05-22.66 0-34 .05-8.41-3.51-15-10.58-19.19C132.13 26 112 14.45 91.93 3c-7.07-4-14.41-3.92-21.46.11-20.09 11.51-40.19 23-60.13 34.78C3.6 41.84.07 48.19.05 56.17c0 17.67.08 35.33 0 53 0 5.21 2.37 8.06 7.21 9.3 4.35 1.11 8.64 2.55 13.05 3.36 4.09.76 4.63 2.8 3.54 6.32-1.39 4.45-2.45 9-3.71 13.49s.25 7.82 4.22 10.12c15.42 8.93 30.78 18 46.29 26.76 7.22 4.09 14.73 3.88 21.93-.24 19.51-11.18 39-22.36 58.41-33.75 7.7-4.53 11.91-11.3 11.73-20.62-.26-11-.1-22-.1-33zM42.41 126.59c-4.22-.91-8.35-2.26-12.54-3.32-2.07-.52-3.32-1.31-2.57-3.79 1.4-4.62 2.34-9.39 4-13.9a15.5 15.5 0 1 1 11.12 21zM134 68.79c-.9 3.55-1.93 7.06-3 10.58-3.66 12.57-14.39 17.73-24.68 23.22-2.68 1.43-2.47-1.53-2.56-2.86a34.58 34.58 0 0 0-5.51-16c4.18 12.27 4.24 24.28-1.9 35.8a46 46 0 0 1-27.64 22.86c10.82-15.56 15.07-31.78 4.47-48.66-10-15.85-25.61-19.52-43.29-17.24 4.19-6 16.47-12 26.48-12.85 6-.52 12-.54 17.81 1.39a8.46 8.46 0 0 0 8-1.19c1.66-1.11 3.54-1.9 5.14-3.07 12.22-8.89 25.19-9.83 39.29-4.82 11.02 3.9 10.39 1.22 7.39 12.84z"
              fill="url(#a978f8135-fb24-4319-9a34-621124e39b4a)"
            ></path>
            <path
              d="M110.4 65.36a9.08 9.08 0 0 0-9 8.82c0 4.44 4.17 8.39 8.76 8.41a8.29 8.29 0 0 0 8.53-8.43 8.7 8.7 0 0 0-8.29-8.8z"
              fill="#fc51fa"
            ></path>
          </svg>
        </svg>
        <!---->
      </g>
    </g>
    <g transform="translate(67,11.397109985351562)">
      <g
        data-gra="path-name"
        fill-rule=""
        class="tp-name iconsvg-namesvg"
        transform="matrix(1,0,0,1,0,0)"
        opacity="1"
      >
        <g transform="scale(1)">
          <g>
            <path
              d="M28.72-6.8C28.05-6.8 27.56-7.05 27.24-7.54 26.92-8.03 26.71-8.79 26.59-9.83 26.97-11.56 27.16-14.25 27.16-17.89 27.16-18.93 27.15-19.73 27.13-20.29 27.12-20.85 27.11-21.52 27.09-22.28 27.08-23.05 27.05-23.63 27-24.02 26.96-24.41 26.89-24.86 26.79-25.38 26.69-25.9 26.58-26.28 26.46-26.51 26.35-26.74 26.19-27.01 25.99-27.33 25.78-27.65 25.57-27.86 25.34-27.98 25.11-28.09 24.82-28.22 24.47-28.37 24.12-28.51 23.76-28.6 23.37-28.63 22.98-28.66 22.52-28.67 22-28.67 21.11-28.67 20.41-28.59 19.9-28.43 19.4-28.27 18.94-28.01 18.54-27.63 18.13-27.26 17.84-26.64 17.67-25.77 17.5-24.9 17.37-23.88 17.28-22.69 17.19-21.51 17.15-19.92 17.15-17.93 17.15-14.38 17.34-11.77 17.71-10.09 17.6-8.91 17.38-8.05 17.06-7.51 16.75-6.98 16.27-6.71 15.64-6.71 14.36-6.71 13.51-7.33 13.08-8.58 12.65-9.82 12.43-11.82 12.43-14.6L12.39-25.16C12.39-26.17 12.24-27 11.95-27.63 11.67-28.27 11.17-28.75 10.48-29.08 9.79-29.42 8.85-29.58 7.67-29.58 6.25-29.58 5.18-29.23 4.44-28.54 3.7-27.85 3.15-26.54 2.79-24.6 2.43-22.67 2.25-19.81 2.25-16.03 2.25-13.69 2.53-11.56 3.1-9.64 3.66-7.72 4.39-6.16 5.28-4.96 6.18-3.76 7.21-2.76 8.38-1.95 9.55-1.14 10.7-0.57 11.82-0.24 12.95 0.09 14.08 0.26 15.2 0.26 17.83 0.26 20.18-0.59 22.26-2.3 24.37-0.65 26.72 0.17 29.32 0.17 30.07 0.17 30.84 0.09 31.64-0.06 32.43-0.22 33.25-0.5 34.09-0.89 34.92-1.28 35.72-1.76 36.47-2.34 37.22-2.92 37.93-3.65 38.61-4.53 39.29-5.41 39.87-6.4 40.37-7.49 40.86-8.59 41.25-9.87 41.54-11.35 41.82-12.82 41.97-14.41 41.97-16.11 41.97-18.97 41.88-21.27 41.71-23 41.54-24.73 41.22-26.1 40.76-27.11 40.29-28.12 39.74-28.8 39.09-29.15 38.44-29.49 37.58-29.67 36.51-29.67 34.78-29.67 33.56-29.31 32.85-28.61 32.14-27.9 31.79-26.78 31.79-25.25L31.7-14.64C31.7-11.87 31.49-9.87 31.05-8.64 30.62-7.41 29.84-6.8 28.72-6.8ZM54.66-12.13C54.74-13.08 54.93-13.95 55.22-14.75 55.51-15.54 55.85-16.15 56.24-16.59 56.63-17.02 57.03-17.24 57.43-17.24 58.53-17.24 59.08-16.33 59.08-14.51 59.08-13.85 59-13.33 58.86-12.95 58.66-12.43 58.34-12.17 57.91-12.17 57.73-12.17 56.65-12.16 54.66-12.13ZM57.6 0.26C59.16 0.26 60.62 0 61.98-0.52 63.33-1.04 64.42-1.67 65.25-2.4 66.07-3.14 66.71-3.88 67.18-4.61 67.64-5.35 67.87-5.98 67.87-6.5 67.87-6.93 67.73-7.29 67.46-7.58 67.18-7.87 66.8-8.01 66.31-8.01 66.02-8.01 65.55-7.85 64.9-7.54 64.25-7.22 63.65-6.99 63.1-6.84 61.8-6.53 60.53-6.37 59.29-6.37 58.14-6.37 57.18-6.63 56.43-7.17 55.68-7.7 55.16-8.43 54.87-9.36L60.98-9.4C61.7-9.4 62.38-9.46 63.02-9.59 63.65-9.72 64.2-9.91 64.66-10.16 65.13-10.4 65.54-10.68 65.9-10.98 66.26-11.28 66.55-11.61 66.76-11.98 66.98-12.34 67.14-12.7 67.24-13.08 67.34-13.46 67.39-13.85 67.39-14.25 67.39-16.33 66.6-17.97 65.03-19.17 63.46-20.36 60.98-20.96 57.6-20.96 54.02-20.96 51.1-19.97 48.83-18 46.57-16.02 45.43-13.33 45.43-9.92 45.43-6.77 46.58-4.29 48.88-2.47 51.17-0.65 54.08 0.26 57.6 0.26ZM81.12-6.63L81.12-10.81 81.12-14.03C81.64-15.1 82.35-15.64 83.24-15.64 83.65-15.64 84.01-15.47 84.33-15.14 84.64-14.81 84.9-14.37 85.11-13.84 85.31-13.3 85.47-12.7 85.58-12.04 85.7-11.38 85.76-10.7 85.76-10 85.76-8.73 85.54-7.61 85.11-6.63 84.67-5.64 84.07-5.15 83.29-5.15 82.36-5.15 81.64-5.64 81.12-6.63ZM81.08-18.88L81.08-24.82C81.08-26.49 80.7-27.71 79.93-28.48 79.17-29.24 77.97-29.62 76.36-29.62 74.91-29.62 73.76-29.21 72.89-28.37 72.03-27.53 71.59-26.22 71.59-24.43L71.68-8.1C71.71-6.31 72.19-4.78 73.13-3.51 74.07-2.24 75.37-1.28 77.03-0.65 78.69-0.01 80.63 0.3 82.85 0.3 86.49 0.3 89.45-0.69 91.73-2.66 94.01-4.64 95.15-7.39 95.15-10.91 95.15-13.83 94.4-16.24 92.9-18.15 91.4-20.05 89.52-21.01 87.27-21.01 85.05-21.01 82.98-20.3 81.08-18.88ZM111.01-29.62L104.64-29.62C101.35-29.62 99.7-27.91 99.7-24.47L99.7-6.19C99.7-3.85 100.08-2.24 100.85-1.34 101.61-0.45 102.88 0 104.64 0L113.17 0C115.02 0 116.68-0.3 118.15-0.89 119.62-1.48 120.84-2.26 121.79-3.23 122.74-4.19 123.54-5.33 124.17-6.65 124.81-7.96 125.26-9.31 125.54-10.7 125.81-12.08 125.95-13.51 125.95-14.99 125.95-19.55 124.58-23.13 121.86-25.73 119.13-28.33 115.51-29.62 111.01-29.62ZM109.71-5.89L109.71-23.6C110.63-23.58 111.42-23.44 112.07-23.19 112.72-22.95 113.32-22.53 113.86-21.94 114.41-21.35 114.83-20.48 115.12-19.34 115.41-18.2 115.55-16.8 115.55-15.16 115.55-13.69 115.46-12.41 115.27-11.33 115.08-10.24 114.83-9.36 114.51-8.66 114.2-7.97 113.78-7.41 113.28-6.99 112.77-6.58 112.24-6.29 111.68-6.13 111.11-5.97 110.46-5.89 109.71-5.89ZM138.42-12.13C138.51-13.08 138.7-13.95 138.98-14.75 139.27-15.54 139.61-16.15 140-16.59 140.39-17.02 140.79-17.24 141.19-17.24 142.29-17.24 142.84-16.33 142.84-14.51 142.84-13.85 142.77-13.33 142.62-12.95 142.42-12.43 142.1-12.17 141.67-12.17 141.5-12.17 140.41-12.16 138.42-12.13ZM141.37 0.26C142.93 0.26 144.38 0 145.74-0.52 147.1-1.04 148.19-1.67 149.01-2.4 149.83-3.14 150.48-3.88 150.94-4.61 151.4-5.35 151.63-5.98 151.63-6.5 151.63-6.93 151.49-7.29 151.22-7.58 150.95-7.87 150.56-8.01 150.07-8.01 149.78-8.01 149.31-7.85 148.66-7.54 148.01-7.22 147.42-6.99 146.87-6.84 145.57-6.53 144.3-6.37 143.06-6.37 141.9-6.37 140.95-6.63 140.2-7.17 139.45-7.7 138.93-8.43 138.64-9.36L144.74-9.4C145.47-9.4 146.15-9.46 146.78-9.59 147.42-9.72 147.96-9.91 148.43-10.16 148.89-10.4 149.3-10.68 149.66-10.98 150.02-11.28 150.31-11.61 150.53-11.98 150.74-12.34 150.9-12.7 151-13.08 151.1-13.46 151.15-13.85 151.15-14.25 151.15-16.33 150.37-17.97 148.79-19.17 147.22-20.36 144.74-20.96 141.37-20.96 137.79-20.96 134.86-19.97 132.6-18 130.33-16.02 129.2-13.33 129.2-9.92 129.2-6.77 130.34-4.29 132.64-2.47 134.94-0.65 137.84 0.26 141.37 0.26ZM166.57-6.5C166.26-6.5 165.99-6.53 165.77-6.58 165.56-6.64 165.38-6.75 165.25-6.91 165.12-7.07 165.01-7.22 164.93-7.36 164.84-7.51 164.78-7.74 164.75-8.06 164.73-8.37 164.71-8.64 164.71-8.86L164.71-9.87 164.67-16.8C164.67-18.13 164.29-19.11 163.54-19.73 162.79-20.35 161.52-20.66 159.73-20.66 158.46-20.66 157.51-20.39 156.89-19.86 156.27-19.32 155.83-18.37 155.57-17 155.31-15.63 155.18-13.53 155.18-10.7 155.18-9.14 155.43-7.74 155.92-6.5 156.41-5.26 157.05-4.24 157.82-3.44 158.6-2.65 159.51-1.99 160.53-1.45 161.56-0.92 162.57-0.54 163.59-0.32 164.6-0.11 165.61 0 166.64 0 167.66 0 168.68-0.11 169.69-0.32 170.7-0.54 171.71-0.92 172.72-1.45 173.73-1.99 174.62-2.65 175.39-3.44 176.15-4.24 176.78-5.26 177.27-6.5 177.76-7.74 178.01-9.14 178.01-10.7 178.01-12.4 177.96-13.81 177.88-14.92 177.79-16.03 177.66-16.99 177.49-17.78 177.31-18.57 177.04-19.17 176.67-19.55 176.29-19.94 175.86-20.23 175.37-20.4 174.87-20.57 174.24-20.66 173.46-20.66 172.25-20.66 171.28-20.51 170.56-20.23 169.84-19.94 169.32-19.52 169.02-18.97 168.72-18.42 168.57-17.7 168.57-16.8L168.52-9.83C168.52-8.56 168.41-7.69 168.18-7.21 167.95-6.73 167.41-6.5 166.57-6.5Z"
              transform="translate(-2.25, 29.670000076293945)"
            ></path>
          </g>
          <!---->
          <!---->
          <!---->
          <!---->
          <!---->
          <!---->
          <!---->
        </g>
      </g>
      <g
        data-gra="path-slogan"
        fill-rule=""
        class="tp-slogan iconsvg-slogansvg"
        fill="#333"
        transform="matrix(1,0,0,1,12.419998168945312,35.96999931335449)"
        opacity="1"
      >
        <!---->
        <!---->
        <g transform="scale(1, 1)">
          <g transform="scale(1)">
            <path
              d="M0.28-7.87L1.94 0L3.13 0L4.30-4.74C4.36-5.04 4.43-5.34 4.49-5.63C4.56-5.93 4.63-6.22 4.69-6.53L4.74-6.53C4.80-6.22 4.87-5.93 4.93-5.63C4.99-5.34 5.05-5.04 5.12-4.74L6.31 0L7.51 0L9.14-7.87L8.18-7.87L7.36-3.59C7.28-3.16 7.20-2.74 7.13-2.32C7.06-1.90 6.98-1.48 6.91-1.04L6.86-1.04C6.77-1.48 6.67-1.90 6.58-2.33C6.48-2.75 6.38-3.17 6.29-3.59L5.20-7.87L4.28-7.87L3.19-3.59C3.10-3.16 3.01-2.74 2.92-2.32C2.82-1.90 2.73-1.48 2.64-1.04L2.59-1.04C2.52-1.48 2.44-1.90 2.36-2.32C2.28-2.73 2.21-3.16 2.14-3.59L1.31-7.87ZM10.51-7.87L10.51 0L15.17 0L15.17-0.85L11.51-0.85L11.51-3.71L14.50-3.71L14.50-4.56L11.51-4.56L11.51-7.03L15.05-7.03L15.05-7.87ZM16.84-7.87L16.84 0L19.34 0C19.78 0 20.19-0.05 20.56-0.14C20.92-0.24 21.24-0.38 21.50-0.58C21.77-0.77 21.97-1.01 22.12-1.30C22.26-1.58 22.33-1.92 22.33-2.30C22.33-2.85 22.17-3.28 21.85-3.59C21.53-3.90 21.08-4.10 20.51-4.19L20.51-4.24C20.97-4.36 21.32-4.57 21.54-4.89C21.76-5.21 21.88-5.56 21.88-5.95C21.88-6.30 21.81-6.59 21.68-6.83C21.55-7.08 21.36-7.28 21.13-7.43C20.89-7.58 20.61-7.69 20.27-7.76C19.94-7.84 19.58-7.87 19.18-7.87ZM19.00-4.51L17.83-4.51L17.83-7.08L19.04-7.08C19.66-7.08 20.12-6.99 20.43-6.80C20.74-6.61 20.89-6.30 20.89-5.87C20.89-5.43 20.75-5.09 20.45-4.86C20.16-4.63 19.68-4.51 19.00-4.51ZM19.20-0.79L17.83-0.79L17.83-3.77L19.20-3.77C19.90-3.77 20.43-3.65 20.80-3.43C21.16-3.20 21.35-2.84 21.35-2.35C21.35-1.82 21.16-1.42 20.78-1.17C20.41-0.92 19.88-0.79 19.20-0.79ZM26.32-7.87L26.32 0L28.33 0C28.92 0 29.45-0.09 29.90-0.27C30.36-0.45 30.74-0.71 31.06-1.05C31.37-1.39 31.60-1.81 31.76-2.30C31.92-2.79 32.00-3.35 32.00-3.97C32.00-5.23 31.69-6.19 31.06-6.86C30.42-7.54 29.50-7.87 28.28-7.87ZM28.21-0.82L27.31-0.82L27.31-7.06L28.21-7.06C29.13-7.06 29.82-6.79 30.28-6.26C30.74-5.74 30.97-4.97 30.97-3.97C30.97-2.97 30.74-2.20 30.28-1.64C29.82-1.09 29.13-0.82 28.21-0.82ZM33.70-7.87L33.70 0L38.35 0L38.35-0.85L34.69-0.85L34.69-3.71L37.68-3.71L37.68-4.56L34.69-4.56L34.69-7.03L38.23-7.03L38.23-7.87ZM38.94-7.87L41.46 0L42.62 0L45.12-7.87L44.10-7.87L42.84-3.62C42.70-3.15 42.58-2.72 42.47-2.32C42.36-1.92 42.23-1.48 42.08-1.02L42.04-1.02C41.88-1.48 41.75-1.92 41.65-2.32C41.54-2.72 41.41-3.15 41.27-3.62L40.01-7.87ZM46.20-7.87L46.20 0L50.86 0L50.86-0.85L47.20-0.85L47.20-3.71L50.18-3.71L50.18-4.56L47.20-4.56L47.20-7.03L50.74-7.03L50.74-7.87ZM52.52-7.87L52.52 0L56.96 0L56.96-0.85L53.52-0.85L53.52-7.87ZM60.95 0.14C61.44 0.14 61.90 0.05 62.31-0.14C62.72-0.34 63.08-0.61 63.38-0.97C63.68-1.32 63.91-1.75 64.07-2.26C64.24-2.77 64.32-3.34 64.32-3.97C64.32-4.60 64.24-5.16 64.07-5.66C63.91-6.16 63.68-6.58 63.38-6.93C63.08-7.28 62.72-7.55 62.31-7.73C61.90-7.92 61.44-8.02 60.95-8.02C60.45-8.02 60.00-7.92 59.59-7.74C59.17-7.56 58.82-7.29 58.52-6.94C58.23-6.59 58.00-6.17 57.83-5.67C57.67-5.17 57.59-4.60 57.59-3.97C57.59-3.34 57.67-2.77 57.83-2.26C58.00-1.75 58.23-1.32 58.52-0.97C58.82-0.61 59.17-0.34 59.59-0.14C60.00 0.05 60.45 0.14 60.95 0.14ZM60.95-0.73C60.60-0.73 60.28-0.81 59.99-0.96C59.71-1.11 59.47-1.33 59.26-1.61C59.06-1.90 58.90-2.24 58.79-2.63C58.68-3.03 58.62-3.48 58.62-3.97C58.62-4.46 58.68-4.90 58.79-5.29C58.90-5.68 59.06-6.02 59.26-6.29C59.47-6.56 59.71-6.77 59.99-6.92C60.28-7.07 60.60-7.14 60.95-7.14C61.30-7.14 61.62-7.07 61.90-6.92C62.19-6.77 62.43-6.56 62.63-6.29C62.84-6.02 63.00-5.68 63.11-5.29C63.22-4.90 63.28-4.46 63.28-3.97C63.28-3.48 63.22-3.03 63.11-2.63C63.00-2.24 62.84-1.90 62.63-1.61C62.43-1.33 62.19-1.11 61.90-0.96C61.62-0.81 61.30-0.73 60.95-0.73ZM66.01-7.87L66.01 0L67.01 0L67.01-3.12L68.42-3.12C68.86-3.12 69.25-3.17 69.61-3.27C69.96-3.37 70.27-3.52 70.52-3.72C70.78-3.92 70.98-4.17 71.12-4.48C71.26-4.78 71.33-5.14 71.33-5.56C71.33-5.99 71.26-6.35 71.12-6.65C70.98-6.94 70.78-7.18 70.53-7.36C70.28-7.54 69.97-7.67 69.61-7.75C69.25-7.83 68.86-7.87 68.42-7.87ZM68.30-3.94L67.01-3.94L67.01-7.07L68.30-7.07C68.98-7.07 69.49-6.96 69.83-6.74C70.16-6.52 70.33-6.12 70.33-5.56C70.33-5.00 70.17-4.59 69.83-4.33C69.50-4.07 68.99-3.94 68.30-3.94ZM72.92-7.87L72.92 0L73.85 0L73.85-4.33C73.85-4.68 73.83-5.07 73.80-5.50C73.77-5.92 73.74-6.31 73.72-6.66L73.76-6.66L74.39-4.91L75.91-0.79L76.48-0.79L77.99-4.91L78.62-6.66L78.67-6.66C78.64-6.31 78.61-5.92 78.58-5.50C78.55-5.07 78.54-4.68 78.54-4.33L78.54 0L79.49 0L79.49-7.87L78.31-7.87L76.80-3.65L76.25-2.04L76.20-2.04L75.62-3.65L74.10-7.87ZM81.65-7.87L81.65 0L86.30 0L86.30-0.85L82.64-0.85L82.64-3.71L85.63-3.71L85.63-4.56L82.64-4.56L82.64-7.03L86.18-7.03L86.18-7.87ZM87.97-7.87L87.97 0L88.92 0L88.92-4.12C88.92-4.53 88.91-4.95 88.88-5.36C88.85-5.77 88.82-6.18 88.79-6.58L88.84-6.58L89.69-4.96L92.54 0L93.58 0L93.58-7.87L92.63-7.87L92.63-3.80C92.63-3.39 92.64-2.97 92.67-2.54C92.70-2.11 92.72-1.70 92.75-1.30L92.70-1.30L91.85-2.93L89.00-7.87ZM97.37-7.03L97.37 0L98.38 0L98.38-7.03L100.75-7.03L100.75-7.87L94.99-7.87L94.99-7.03ZM104.14-3.94C104.14-3.30 104.22-2.72 104.39-2.21C104.57-1.71 104.81-1.28 105.11-0.93C105.42-0.58 105.79-0.32 106.21-0.13C106.63 0.05 107.08 0.14 107.58 0.14C108.08 0.14 108.53 0.04 108.92-0.16C109.32-0.36 109.67-0.64 109.98-1.00L109.42-1.61C109.16-1.33 108.89-1.11 108.61-0.96C108.32-0.81 107.99-0.73 107.60-0.73C107.23-0.73 106.89-0.81 106.59-0.96C106.29-1.11 106.04-1.33 105.83-1.61C105.62-1.89 105.46-2.23 105.34-2.62C105.23-3.02 105.17-3.46 105.17-3.96C105.17-4.45 105.23-4.89 105.35-5.28C105.47-5.67 105.64-6.01 105.85-6.28C106.07-6.56 106.33-6.77 106.63-6.92C106.94-7.07 107.28-7.14 107.65-7.14C107.99-7.14 108.28-7.07 108.53-6.94C108.79-6.81 109.02-6.63 109.22-6.41L109.79-7.04C109.56-7.30 109.26-7.53 108.90-7.72C108.54-7.92 108.12-8.02 107.64-8.02C107.14-8.02 106.67-7.92 106.24-7.73C105.81-7.55 105.44-7.28 105.13-6.92C104.82-6.57 104.58-6.14 104.40-5.64C104.22-5.14 104.14-4.57 104.14-3.94ZM114.00 0.14C114.50 0.14 114.95 0.05 115.36-0.14C115.77-0.34 116.13-0.61 116.43-0.97C116.73-1.32 116.96-1.75 117.13-2.26C117.29-2.77 117.37-3.34 117.37-3.97C117.37-4.60 117.29-5.16 117.13-5.66C116.96-6.16 116.73-6.58 116.43-6.93C116.13-7.28 115.77-7.55 115.36-7.73C114.95-7.92 114.50-8.02 114.00-8.02C113.50-8.02 113.05-7.92 112.64-7.74C112.23-7.56 111.87-7.29 111.58-6.94C111.28-6.59 111.05-6.17 110.89-5.67C110.72-5.17 110.64-4.60 110.64-3.97C110.64-3.34 110.72-2.77 110.89-2.26C111.05-1.75 111.28-1.32 111.58-0.97C111.87-0.61 112.23-0.34 112.64-0.14C113.05 0.05 113.50 0.14 114.00 0.14ZM114.00-0.73C113.65-0.73 113.33-0.81 113.05-0.96C112.76-1.11 112.52-1.33 112.31-1.61C112.11-1.90 111.95-2.24 111.84-2.63C111.73-3.03 111.67-3.48 111.67-3.97C111.67-4.46 111.73-4.90 111.84-5.29C111.95-5.68 112.11-6.02 112.31-6.29C112.52-6.56 112.76-6.77 113.05-6.92C113.33-7.07 113.65-7.14 114.00-7.14C114.35-7.14 114.67-7.07 114.95-6.92C115.24-6.77 115.48-6.56 115.69-6.29C115.89-6.02 116.05-5.68 116.16-5.29C116.27-4.90 116.33-4.46 116.33-3.97C116.33-3.48 116.27-3.03 116.16-2.63C116.05-2.24 115.89-1.90 115.69-1.61C115.48-1.33 115.24-1.11 114.95-0.96C114.67-0.81 114.35-0.73 114.00-0.73ZM119.03-7.87L119.03-3.25C119.03-2.62 119.10-2.09 119.24-1.66C119.39-1.22 119.59-0.87 119.84-0.61C120.09-0.34 120.39-0.15 120.74-0.03C121.09 0.09 121.46 0.14 121.86 0.14C122.26 0.14 122.63 0.09 122.98-0.03C123.32-0.15 123.62-0.34 123.87-0.61C124.12-0.87 124.32-1.22 124.46-1.66C124.61-2.09 124.68-2.62 124.68-3.25L124.68-7.87L123.72-7.87L123.72-3.23C123.72-2.76 123.67-2.36 123.58-2.04C123.48-1.72 123.35-1.46 123.18-1.27C123.01-1.08 122.82-0.94 122.59-0.86C122.37-0.77 122.12-0.73 121.86-0.73C121.60-0.73 121.36-0.77 121.14-0.86C120.92-0.94 120.72-1.08 120.56-1.27C120.39-1.46 120.26-1.72 120.17-2.04C120.07-2.36 120.02-2.76 120.02-3.23L120.02-7.87ZM127.80-4.14L127.80-7.07L129.12-7.07C129.74-7.07 130.21-6.96 130.54-6.76C130.86-6.55 131.03-6.18 131.03-5.66C131.03-5.15 130.86-4.77 130.54-4.52C130.21-4.27 129.74-4.14 129.12-4.14ZM131.12 0L132.25 0L130.26-3.43C130.80-3.57 131.22-3.82 131.54-4.19C131.86-4.56 132.02-5.05 132.02-5.66C132.02-6.07 131.96-6.42 131.82-6.70C131.68-6.98 131.49-7.20 131.25-7.38C131.01-7.56 130.71-7.68 130.37-7.76C130.03-7.83 129.66-7.87 129.26-7.87L126.80-7.87L126.80 0L127.80 0L127.80-3.32L129.23-3.32ZM133.63-1.72L133.03-1.02C133.38-0.66 133.78-0.38 134.26-0.17C134.73 0.04 135.24 0.14 135.79 0.14C136.21 0.14 136.58 0.09 136.91-0.03C137.24-0.15 137.52-0.31 137.75-0.51C137.98-0.71 138.16-0.95 138.28-1.22C138.41-1.50 138.47-1.79 138.47-2.10C138.47-2.39 138.43-2.64 138.34-2.86C138.26-3.08 138.14-3.27 138.00-3.44C137.86-3.60 137.68-3.75 137.48-3.87C137.28-3.99 137.07-4.10 136.85-4.20L135.73-4.68C135.57-4.74 135.42-4.81 135.26-4.89C135.11-4.97 134.97-5.05 134.84-5.15C134.72-5.25 134.61-5.37 134.54-5.50C134.46-5.63 134.42-5.80 134.42-5.99C134.42-6.35 134.56-6.63 134.83-6.83C135.09-7.04 135.45-7.14 135.89-7.14C136.26-7.14 136.59-7.07 136.88-6.94C137.17-6.81 137.44-6.63 137.68-6.40L138.22-7.04C137.94-7.33 137.60-7.57 137.20-7.75C136.80-7.93 136.36-8.02 135.89-8.02C135.53-8.02 135.20-7.96 134.90-7.86C134.60-7.76 134.34-7.61 134.12-7.42C133.90-7.23 133.73-7.01 133.60-6.76C133.48-6.50 133.42-6.22 133.42-5.93C133.42-5.64 133.46-5.39 133.56-5.17C133.66-4.95 133.78-4.76 133.93-4.60C134.08-4.44 134.26-4.30 134.45-4.19C134.64-4.08 134.83-3.98 135.01-3.90L136.14-3.41C136.32-3.32 136.50-3.24 136.66-3.16C136.82-3.08 136.95-2.99 137.07-2.89C137.19-2.79 137.28-2.67 137.35-2.53C137.41-2.39 137.45-2.22 137.45-2.02C137.45-1.63 137.30-1.32 137.02-1.09C136.73-0.85 136.32-0.73 135.80-0.73C135.40-0.73 135.00-0.82 134.62-1.00C134.24-1.18 133.91-1.42 133.63-1.72ZM140.02-7.87L140.02 0L144.67 0L144.67-0.85L141.01-0.85L141.01-3.71L144-3.71L144-4.56L141.01-4.56L141.01-7.03L144.55-7.03L144.55-7.87ZM146.36-1.72L145.76-1.02C146.11-0.66 146.52-0.38 146.99-0.17C147.46 0.04 147.97 0.14 148.52 0.14C148.94 0.14 149.31 0.09 149.64-0.03C149.97-0.15 150.25-0.31 150.48-0.51C150.71-0.71 150.89-0.95 151.01-1.22C151.14-1.50 151.20-1.79 151.20-2.10C151.20-2.39 151.16-2.64 151.07-2.86C150.99-3.08 150.88-3.27 150.73-3.44C150.59-3.60 150.42-3.75 150.22-3.87C150.02-3.99 149.80-4.10 149.58-4.20L148.46-4.68C148.30-4.74 148.15-4.81 148.00-4.89C147.84-4.97 147.70-5.05 147.58-5.15C147.45-5.25 147.35-5.37 147.27-5.50C147.19-5.63 147.16-5.80 147.16-5.99C147.16-6.35 147.29-6.63 147.56-6.83C147.83-7.04 148.18-7.14 148.62-7.14C148.99-7.14 149.32-7.07 149.61-6.94C149.90-6.81 150.17-6.63 150.41-6.40L150.95-7.04C150.67-7.33 150.33-7.57 149.93-7.75C149.53-7.93 149.09-8.02 148.62-8.02C148.26-8.02 147.93-7.96 147.63-7.86C147.33-7.76 147.07-7.61 146.85-7.42C146.63-7.23 146.46-7.01 146.33-6.76C146.21-6.50 146.15-6.22 146.15-5.93C146.15-5.64 146.20-5.39 146.29-5.17C146.39-4.95 146.51-4.76 146.66-4.60C146.82-4.44 146.99-4.30 147.18-4.19C147.37-4.08 147.56-3.98 147.74-3.90L148.87-3.41C149.06-3.32 149.23-3.24 149.39-3.16C149.55-3.08 149.69-2.99 149.80-2.89C149.92-2.79 150.01-2.67 150.08-2.53C150.15-2.39 150.18-2.22 150.18-2.02C150.18-1.63 150.04-1.32 149.75-1.09C149.46-0.85 149.06-0.73 148.54-0.73C148.13-0.73 147.73-0.82 147.35-1.00C146.97-1.18 146.64-1.42 146.36-1.72Z"
              transform="translate(-0.276, 8.016)"
            ></path>
          </g>
        </g>
      </g>
    </g>
  </g>
  <defs v-gra="od"></defs>
</svg>
